<svg xmlns="http://www.w3.org/2000/svg" xmlns:xlink="http://www.w3.org/1999/xlink" version="1.1" x="0px" y="0px" viewBox="-11 13 24 24" style="enable-background:new -11 13 24 24;" xml:space="preserve"><style type="text/css">
	.st0{fill:#050505;}
</style><g><path class="st0" d="M12.2,32.5L7.7,28c-0.5,0.7-1,1.4-1.6,2.1c-0.6,0.6-1.3,1.2-2.1,1.6l4.6,4.5c1,1,2.7,1,3.7,0l0,0   C13.3,35.2,13.2,33.5,12.2,32.5L12.2,32.5z"></path><path class="st0" d="M7.1,22c0-5-4.1-9-9-9c-2.5,0-4.7,1-6.4,2.7C-10,17.3-11,19.6-11,22c0,5,4.1,9,9,9c2.5,0,4.8-1,6.4-2.7   C6.1,26.8,7.1,24.5,7.1,22L7.1,22z M2,26c-1,1-2.4,1.6-3.9,1.6c-3.1,0-5.6-2.5-5.6-5.6c0-1.5,0.6-2.9,1.6-3.9c1-1,2.4-1.6,3.9-1.6   c3.1,0,5.6,2.5,5.6,5.6C3.6,23.6,3,25,2,26L2,26z"></path></g></svg>