<svg xmlns="http://www.w3.org/2000/svg" xmlns:xlink="http://www.w3.org/1999/xlink" version="1.1" x="0px" y="0px" viewBox="0 0 100 100" enable-background="new 0 0 100 100" xml:space="preserve"><g><path fill="#000000" d="M87.511,23.919l-56.22-7.558l-3.573-7.663c-0.507-1.089-1.529-1.847-2.717-2.016L13.464,5.037   c-1.928-0.279-3.74,1.072-4.018,3.014c-0.276,1.94,1.073,3.741,3.014,4.018l9.633,1.375l20.553,44.075L31.486,74.718   c-0.708,1.091-0.764,2.483-0.142,3.628c0.622,1.143,1.819,1.854,3.121,1.854h48.387c1.961,0,3.551-1.588,3.551-3.55   c0-1.962-1.59-3.55-3.551-3.55h-41.85l7.73-11.915l38.616-3.374c1.834-0.162,3.242-1.696,3.242-3.538V27.438   C90.589,25.659,89.273,24.154,87.511,23.919z"></path><circle fill="#000000" cx="36.319" cy="89.673" r="5.327"></circle><circle fill="#000000" cx="81.077" cy="89.673" r="5.327"></circle></g></svg>