<svg xmlns="http://www.w3.org/2000/svg" xmlns:xlink="http://www.w3.org/1999/xlink" version="1.1" x="0px" y="0px" viewBox="0 0 100 100" enable-background="new 0 0 100 100" xml:space="preserve"><path d="M80.3,61.1c-2.3-0.2-17.2-5.3-22.2-7.5c0-1.8,0-7.8,0-7.8s3-3.7,3-7.3c0.3,0.3,1.9,0.7,2.1-2c0.2-2.7,0.5-6,0.6-7.2  c0.1-1.2-1.5-1-1.6-0.3c0-1-0.1-1.4,0-1.5c0.1-0.1,1-1.1,1-2s0.5-1.5,0.5-3.2s0-6,0-7.2c0-1.1-1.1-0.5-1.1-1.1  c0-0.6-0.7-3.3-4.3-3.3c1-0.8,1.6-3.3,1.4-4.4c-0.3,0.8-1.8,1.3-2.6,1.3C53,7.6,51.4,4.9,46.5,5c-6.5,0.1-8.9,3.5-8.9,5.6  c-3.6,0-4.3,2.7-4.3,3.3c0,0.6-1.1-0.1-1.1,1.1c0,1.1,0,5.5,0,7.2s0.5,2.3,0.5,3.2s0.9,1.9,1,2c0.1,0.1,0,0.5,0,1.5  c-0.1-0.6-1.7-0.9-1.6,0.3c0.1,1.2,0.3,4.5,0.6,7.2c0.2,2.7,1.8,2.3,2.1,2c0,3.7,3,7.3,3,7.3C39.2,48,44.1,51,48,51  c-7.2,0-10.2-2.9-10.2-2.9c0,1.9,0,4.6,0,5.5c-5.3,2.2-19.9,7.3-22.2,7.5c-2.7,0.2-3.4,1-4.7,3.3c-1.4,2.3-4.6,13.7-5.1,21  C9.9,87,29.4,93,48,93c4.2,0,8.5-0.3,12.7-0.8c-1-2.2-1.6-4.6-1.6-7.2c0-9.4,7.6-17,17-17c4.6,0,8.8,1.8,11.8,4.8  c-1-3.9-2.2-7.3-2.8-8.4C83.7,62.1,83,61.4,80.3,61.1z"></path><path d="M83.1,78.5l-9.7,9.7L69,83.9c-0.6-0.6-1.5-0.6-2.1,0s-0.6,1.5,0,2.1l5.4,5.4c0.3,0.3,0.7,0.4,1.1,0.4s0.8-0.2,1.1-0.4  l10.8-10.8c0.6-0.6,0.6-1.5,0-2.1S83.7,78,83.1,78.5z"></path></svg>